<?xml version="1.0" standalone="no"?><!DOCTYPE svg PUBLIC "-//W3C//DTD SVG 1.1//EN" "http://www.w3.org/Graphics/SVG/1.1/DTD/svg11.dtd"><svg t="1662984283708" class="icon" viewBox="0 0 1024 1024" version="1.1" xmlns="http://www.w3.org/2000/svg" p-id="6947" xmlns:xlink="http://www.w3.org/1999/xlink" width="200" height="200"><path d="M666.3 751.8V119H297.9v765.2c0 11.4 9.3 20.7 20.7 20.7h14.6c11.4 0 20.7-9.3 20.7-20.7v-48h312.3v6.2c0 8.6 7 15.5 15.5 15.5h17.8c8.6 0 15.5-7 15.5-15.5v-84.7c0-12.9-13.3-21.6-25.1-16.4l-23.6 10.5z" fill="#F9F7EA" p-id="6948"></path><path d="M297.9 884.3c0 11.4 9.3 20.7 20.7 20.7h14.6c11.4 0 20.7-9.3 20.7-20.7v-48h312.3v6.2c0 8.6 7 15.5 15.5 15.5h17.8c8.6 0 15.5-7 15.5-15.5v-84.7c0-12.9-13.3-21.6-25.1-16.4l-23.8 10.5V598S619 758.8 504 758.8s-206.2 50.9-206.2 50.9v74.6z" fill="#E2DECF" p-id="6949"></path><path d="M715.2 773.9v-2.8h-42.9v-19.2h-2.8v19.2h-37.9v-37.9H662v-2.8h-30.4v-37.9H662v-2.8h-30.4v-37.9H662V649h-30.4v-37.9H662v-2.8h-30.4v-37.9H662v-2.8h-30.4v-37.9H662v-2.8h-30.4V489H662v-2.8h-30.4V448H662v-2.8h-30.4v-37.9H662v-2.8h-30.4v-37.9H662v-2.8h-30.4v-37.9H662v-2.8h-30.4V285H662v-2.8h-30.4v-37.9H662v-2.8h-30.4v-37.9H662v-2.8h-30.4v-37.9H662V160h-30.4v-34h-2.8v34h-37.9v-34H588v34h-38v-34h-2.8v34h-37.9v-34h-2.8v34h-37.9v-34h-2.8v34h-37.9v-34H425v34h-37.9v-34h-2.8v34h-37.9v-34h-2.8v34h-42.9v2.8h42.9v37.9h-42.9v2.8h42.9v37.9h-42.9v2.8h42.9v37.9h-42.9v2.8h42.9v37.9h-42.9v2.8h42.9v37.9h-42.9v2.8h42.9v37.9h-42.9v2.8h42.9v37.9h-42.9v2.8h42.9v37.9h-42.9v2.8h42.9v37.9h-42.9v2.8h42.9V567h-42.9v2.8h42.9v37.9h-42.9v2.8h42.9v37.9h-42.9v2.8h42.9v37.9h-42.9v2.8h42.9v37.9h-42.9v2.8h42.9v37.9h-42.9v2.8h42.9v37.9h-42.9v2.8h42.9v37.9h-42.9v2.8h42.9v46.1h2.8v-46.1h7.6v-2.8h-7.6V814h37.9v22.1h2.8V814H425v22.1h2.8V814h37.9v22.1h2.8V814h37.9v22.1h2.8V814h37.9v22.1h2.8V814H588v22.1h2.8V814h37.9v22.1h2.8V814h37.9v27.8h2.8V814h42.9v-2.8h-42.9v-37.9h43z m-86.5-2.8h-37.9v-37.9h37.9v37.9zM506.5 325.7v37.9h-37.9v-37.9h37.9z m-37.9-2.8V285h37.9v37.9h-37.9z m37.9 43.6v37.9h-37.9v-37.9h37.9z m0 40.7v37.9h-37.9v-37.9h37.9z m0 40.8v37.9h-37.9V448h37.9z m0 40.7v37.9h-37.9v-37.9h37.9z m0 40.7v37.9h-37.9v-37.9h37.9z m0 40.8v37.9h-37.9v-37.9h37.9z m0 40.7v37.9h-37.9v-37.9h37.9z m0 40.8v37.9h-37.9v-37.9h37.9z m2.8 0h37.9v37.9h-37.9v-37.9z m0-2.8V611h37.9v37.9h-37.9z m0-40.8v-37.9h37.9v37.9h-37.9z m0-40.7v-37.9h37.9v37.9h-37.9z m0-40.8v-37.9h37.9v37.9h-37.9z m0-40.7V448h37.9v37.9h-37.9z m0-40.7v-37.9h37.9v37.9h-37.9z m0-40.8v-37.9h37.9v37.9h-37.9z m0-40.7v-37.9h37.9v37.9h-37.9z m0-40.8V285h37.9v37.9h-37.9z m0-40.7v-37.9h37.9v37.9h-37.9z m-2.8 0h-37.9v-37.9h37.9v37.9z m-40.7 0h-37.9v-37.9h37.9v37.9z m0 2.8v37.9h-37.9V285h37.9z m0 40.7v37.9h-37.9v-37.9h37.9z m0 40.8v37.9h-37.9v-37.9h37.9z m0 40.7v37.9h-37.9v-37.9h37.9z m0 40.8v37.9h-37.9V448h37.9z m0 40.7v37.9h-37.9v-37.9h37.9z m0 40.7v37.9h-37.9v-37.9h37.9z m0 40.8v37.9h-37.9v-37.9h37.9z m0 40.7v37.9h-37.9v-37.9h37.9z m0 40.8v37.9h-37.9v-37.9h37.9z m0 40.7v37.9h-37.9v-37.9h37.9z m2.8 0h37.9v37.9h-37.9v-37.9z m40.7 0h37.9v37.9h-37.9v-37.9z m40.7 0h38v37.9h-38v-37.9z m0-2.8v-37.9h38v37.9h-38z m0-40.7V611h38v37.9h-38z m0-40.8v-37.9h38v37.9h-38z m0-40.7v-37.9h38v37.9h-38z m0-40.8v-37.9h38v37.9h-38z m0-40.7V448h38v37.9h-38z m0-40.7v-37.9h38v37.9h-38z m0-40.8v-37.9h38v37.9h-38z m0-40.7v-37.9h38v37.9h-38z m0-40.8V285h38v37.9h-38z m0-40.7v-37.9h38v37.9h-38z m0-40.7v-37.9h38v37.9h-38z m-2.8 0h-37.9v-37.9h37.9v37.9z m-40.7 0h-37.9v-37.9h37.9v37.9z m-40.7 0h-37.9v-37.9h37.9v37.9z m-40.8 0h-37.9v-37.9H425v37.9z m0 2.8v37.9h-37.9v-37.9H425z m0 40.7v37.9h-37.9V285H425z m0 40.7v37.9h-37.9v-37.9H425z m0 40.8v37.9h-37.9v-37.9H425z m0 40.7v37.9h-37.9v-37.9H425z m0 40.8v37.9h-37.9V448H425z m0 40.7v37.9h-37.9v-37.9H425z m0 40.7v37.9h-37.9v-37.9H425z m0 40.8v37.9h-37.9v-37.9H425z m0 40.7v37.9h-37.9v-37.9H425z m0 40.8v37.9h-37.9v-37.9H425z m0 40.7v37.9h-37.9v-37.9H425z m0 40.7V771h-37.9v-37.9H425z m2.8 0h37.9V771h-37.9v-37.9z m40.8 0h37.9V771h-37.9v-37.9z m40.7 0h37.9V771h-37.9v-37.9z m40.7 0h38V771h-38v-37.9z m78.7-2.8h-37.9v-37.9h37.9v37.9z m0-40.7h-37.9v-37.9h37.9v37.9z m0-40.7h-37.9V611h37.9v37.9z m0-40.8h-37.9v-37.9h37.9v37.9z m0-40.7h-37.9v-37.9h37.9v37.9z m0-40.8h-37.9v-37.9h37.9v37.9z m0-40.7h-37.9V448h37.9v37.9z m0-40.7h-37.9v-37.9h37.9v37.9z m0-40.8h-37.9v-37.9h37.9v37.9z m0-40.7h-37.9v-37.9h37.9v37.9z m0-40.8h-37.9V285h37.9v37.9z m0-40.7h-37.9v-37.9h37.9v37.9z m0-40.7h-37.9v-37.9h37.9v37.9z m0-78.7v37.9h-37.9v-37.9h37.9z m-40.7 0v37.9h-38v-37.9h38z m-40.8 0v37.9h-37.9v-37.9h37.9z m-40.7 0v37.9h-37.9v-37.9h37.9z m-40.7 0v37.9h-37.9v-37.9h37.9z m-40.8 0v37.9h-37.9v-37.9H425z m-78.7 0h37.9v37.9h-37.9v-37.9z m0 40.7h37.9v37.9h-37.9v-37.9z m0 40.8h37.9v37.9h-37.9v-37.9z m0 40.7h37.9v37.9h-37.9V285z m0 40.7h37.9v37.9h-37.9v-37.9z m0 40.8h37.9v37.9h-37.9v-37.9z m0 40.7h37.9v37.9h-37.9v-37.9z m0 40.8h37.9v37.9h-37.9V448z m0 40.7h37.9v37.9h-37.9v-37.9z m0 40.7h37.9v37.9h-37.9v-37.9z m0 40.8h37.9v37.9h-37.9v-37.9z m0 40.7h37.9v37.9h-37.9v-37.9z m0 40.8h37.9v37.9h-37.9v-37.9z m0 40.7h37.9v37.9h-37.9v-37.9z m0 40.7h37.9V771h-37.9v-37.9z m0 78.7v-37.9h37.9v37.9h-37.9z m40.8 0v-37.9H425v37.9h-37.9z m40.7 0v-37.9h37.9v37.9h-37.9z m40.8 0v-37.9h37.9v37.9h-37.9z m40.7 0v-37.9h37.9v37.9h-37.9z m40.7 0v-37.9h38v37.9h-38z m40.8 0v-37.9h37.9v37.9h-37.9z m78.7 0h-37.9v-37.9h37.9v37.9z" fill="#E2DECF" p-id="6950"></path><path d="M662 648.9h-16.7c-0.5 0.9-1 1.9-1.4 2.8H662v-2.8zM672.3 751.8h-2.8V771h-37.9v-37.9H662v-2.8h-30.4v-37.9H662v-2.8h-30.4v-16.2c-0.9 1.5-1.9 3-2.8 4.4v11.8h-8.1c-0.7 0.9-1.4 1.9-2.1 2.8h10.2v37.9h-37.9v-7.1c-0.9 0.8-1.9 1.7-2.8 2.5v4.6h-5.6c-1.2 1-2.4 1.9-3.7 2.8h9.3V771H550v-21.5c-0.9 0.4-1.9 0.8-2.8 1.1V771h-37.9v-12.4c-0.9 0-1.9 0-2.8 0.1v12.4h-37.9v-10.7c-0.9 0.1-1.9 0.2-2.8 0.3v10.4h-37.9v-5.2c-0.9 0.2-1.9 0.3-2.8 0.5v4.6h-21.7c-3.8 0.9-7.5 1.8-11.2 2.8H425v37.9h-37.9v-36.6c-0.9 0.3-1.9 0.5-2.8 0.8v35.8h-37.9v-23.5c-0.9 0.3-1.9 0.7-2.8 1v22.4h-42.9v2.8h42.9v37.9h-42.9v2.8h42.9v46.1h1.2c0.5-0.4 1.1-0.7 1.6-1.2v-45h7.6v-2.8h-7.6v-37.9h37.9v21.6h2.8v-21.6H425v21.6h2.8v-21.6h37.9v21.6h2.8v-21.6h37.9v21.6h2.8v-21.6h37.9v21.6h2.8v-21.6H588v21.6h2.8v-21.6h37.9v21.6h2.8v-21.6h37.9v27.8h2.8v-27.8h42.9v-2.8h-42.9v-37.9h42.9v-2.8h-42.9v-19z m-206.5 60h-37.9v-37.9h37.9v37.9z m40.7 0h-37.9v-37.9h37.9v37.9z m40.7 0h-37.9v-37.9h37.9v37.9z m40.8 0h-38v-37.9h38v37.9z m40.7 0h-37.9v-37.9h37.9v37.9z m0-40.7h-37.9v-37.9h37.9v37.9z m40.8 40.7h-37.9v-37.9h37.9v37.9zM662 610.7c0 0.1-0.1 0.2-0.1 0.2h0.1v-0.2z" fill="#CEC9BA" p-id="6951"></path><path d="M380.3 272.7c0 58.1 47.1 105.2 105.2 105.2s105.2-47.1 105.2-105.2c0-14-2.8-27.4-7.8-39.7H388c-5 12.3-7.7 25.7-7.7 39.7z" fill="#FFFFFF" p-id="6952"></path><path d="M583 233.1h-4.8c0.7 4.7 1 9.5 1 14.4 0 58.1-47.1 105.2-105.2 105.2-37.6 0-70.6-19.8-89.2-49.4C397.9 346.5 438 378 485.5 378c58.1 0 105.2-47.1 105.2-105.2 0-14.1-2.7-27.5-7.7-39.7z" fill="#EFEFEF" p-id="6953"></path><path d="M297.9 425.5v-86.9l-78 126.1c-5.8 9.4-5.3 21.5 1.4 30.3l76.5 101v-67.5L276.5 493c-5.8-10.1-5.7-22.6 0.4-32.6l21-34.9z" fill="#F9F7EA" p-id="6954"></path><path d="M297.9 425.5v-36.8l-1.2-2.1s-54.1 69.1-47 96.8c7.1 27.8 38 99.1 38 99.1l10.2 10.2v-64.3L276.5 493c-5.8-10.1-5.7-22.6 0.4-32.6l21-34.9z" fill="#E2DECF" p-id="6955"></path><path d="M333.3 912h-14.6c-15.3 0-27.7-12.4-27.7-27.7V119c0-3.9 3.1-7 7-7h368.3c3.9 0 7 3.1 7 7v622.1l13.9-6.1c7.7-3.4 16.6-2.7 23.7 1.9 7.1 4.6 11.3 12.4 11.3 20.9v84.7c0 12.4-10.1 22.6-22.6 22.6h-17.8c-12.2 0-22.1-9.7-22.5-21.8H361v41c0 15.3-12.4 27.7-27.7 27.7z m-28.4-786v758.2c0 7.5 6.1 13.7 13.7 13.7h14.6c7.5 0 13.7-6.1 13.7-13.7v-48c0-3.9 3.1-7 7-7h312.3c3.9 0 7 3.1 7 7v6.2c0 4.7 3.8 8.5 8.5 8.5h17.8c4.7 0 8.5-3.8 8.5-8.5v-84.7c0-3.8-1.8-7.1-4.9-9.1-3.1-2-6.9-2.4-10.3-0.8L669 758.3c-2.2 1-4.7 0.8-6.7-0.5s-3.2-3.5-3.2-5.9V126H304.9z" fill="#6B2318" p-id="6956"></path><path d="M631.7 777.2c-2.5 0-4.9-1.4-6.2-3.7-1.8-3.4-0.5-7.7 2.9-9.5l34.5-18.3c3.4-1.8 7.7-0.5 9.5 2.9 1.8 3.4 0.5 7.7-2.9 9.5L635 776.3c-1 0.6-2.1 0.9-3.3 0.9z" fill="#6B2318" p-id="6957"></path><path d="M635 905l14-32.7h87.2l17.9 32.7" fill="#B5DF6A" p-id="6958"></path><path d="M485.5 385c-61.9 0-112.3-50.4-112.3-112.3 0-14.6 2.8-28.8 8.3-42.3 1.1-2.6 3.6-4.4 6.5-4.4h195c2.9 0 5.4 1.7 6.5 4.4 5.5 13.5 8.3 27.7 8.3 42.3 0 61.9-50.4 112.3-112.3 112.3z m-92.6-144.9c-3.7 10.5-5.6 21.4-5.6 32.6 0 54.2 44.1 98.2 98.2 98.2s98.2-44.1 98.2-98.2c0-11.2-1.9-22.2-5.6-32.6H392.9z" fill="#6B2318" p-id="6959"></path><path d="M745.9 890H641.4l-6.4 15h119.1z" fill="#73A630" p-id="6960"></path><path d="M466.9 291.9a18.6 35.4 0 1 0 37.2 0 18.6 35.4 0 1 0-37.2 0Z" fill="#6B2318" p-id="6961"></path><path d="M485.5 546.1c-61.9 0-112.3-50.4-112.3-112.3 0-3.9 3.1-7 7-7s7 3.1 7 7c0 54.2 44.1 98.2 98.2 98.2s98.2-44.1 98.2-98.2c0-3.9 3.1-7 7-7s7 3.1 7 7c0.2 61.9-50.2 112.3-112.1 112.3z" fill="#6B2318" p-id="6962"></path><path d="M669.6 330.6l92.1-127.7s10.7-13.6 19.3-9.3c8.6 4.3-8.6 52.1-8.6 52.1l25.7-4.3s10.7 5.9 10 15.1c-0.7 9.2-64.9 41.3-64.9 41.3l-73.5 118.5" fill="#F9F7EA" p-id="6963"></path><path d="M732.3 287.9l-62.7 83.4v44.9l73.5-118.5s64.2-32.1 64.9-41.3c0.2-2.8-0.7-5.4-2-7.5l-12.4 5.1c-14.9 9.9-61.3 33.9-61.3 33.9z" fill="#E2DECF" p-id="6964"></path><path d="M669.6 423.2c-1.3 0-2.5-0.3-3.7-1.1-3.3-2-4.3-6.4-2.3-9.7l73.5-118.5c0.7-1.1 1.7-2 2.8-2.6 26-13 56-30.3 61.1-36.5-0.3-2.5-2.7-4.8-4.6-6.3l-22.9 3.8c-2.5 0.4-4.9-0.5-6.5-2.4-1.6-1.9-2.1-4.5-1.2-6.9 6.4-17.8 10.9-36.8 10.6-43.4-2.4 0.7-6.4 3.8-9.2 7.3l-95.3 128.5c-2.3 3.1-6.7 3.8-9.8 1.5-3.1-2.3-3.8-6.7-1.5-9.8L756 198.7c1.6-2 14.7-18 28-11.4 3.6 1.8 12.6 6.3-1.3 49.5l14.1-2.3c1.6-0.3 3.2 0 4.5 0.8 5.4 3 14.4 11 13.6 21.8-0.3 3.6-1 13-67 46.1L675.4 420c-1.1 2.1-3.4 3.2-5.8 3.2zM297.9 535.5c-2.4 0-4.7-1.2-6-3.4l-21.4-35.5c-7.1-12.5-7-27.7 0.4-39.8l21.1-34.9c2-3.3 6.3-4.4 9.6-2.4 3.3 2 4.4 6.3 2.4 9.6L282.9 464c-4.7 7.8-4.8 17.6-0.3 25.5l21.4 35.4c2 3.3 0.9 7.6-2.4 9.6-1.2 0.7-2.4 1-3.7 1z" fill="#6B2318" p-id="6965"></path><path d="M297.9 602.9c-2.1 0-4.2-1-5.6-2.8l-76.5-101c-8.4-11.1-9.1-26.4-1.8-38.3l78-126.1c2-3.3 6.4-4.3 9.7-2.3 3.3 2 4.3 6.4 2.3 9.7l-78 126.1c-4.3 6.9-3.9 15.9 1.1 22.4l76.5 101c2.3 3.1 1.7 7.5-1.4 9.8-1.3 1.1-2.8 1.5-4.3 1.5zM763.3 912H619.2c-3.9 0-7-3.1-7-7s3.1-7 7-7h144.2c3.9 0 7 3.1 7 7-0.1 3.9-3.2 7-7.1 7z" fill="#6B2318" p-id="6966"></path><path d="M635 912c-0.9 0-1.9-0.2-2.8-0.6-3.6-1.5-5.2-5.6-3.7-9.2l14-32.7c1.1-2.6 3.6-4.3 6.5-4.3h87.2c2.6 0 4.9 1.4 6.2 3.7l17.9 32.7c1.9 3.4 0.6 7.7-2.8 9.5-3.4 1.9-7.7 0.6-9.5-2.8l-16-29h-78.4l-12.2 28.4c-1.1 2.7-3.6 4.3-6.4 4.3z" fill="#6B2318" p-id="6967"></path><path d="M330.7 244.3c-3.9 0-7-3.1-7-7v-55.5c0-14.6 11.9-26.5 26.5-26.5h52.7c3.9 0 7 3.1 7 7s-3.1 7-7 7h-52.7c-6.9 0-12.4 5.6-12.4 12.4v55.5c0 4-3.2 7.1-7.1 7.1z" fill="#FFFFFF" p-id="6968"></path><path d="M425.4 163.1m-6.7 0a6.7 6.7 0 1 0 13.4 0 6.7 6.7 0 1 0-13.4 0Z" fill="#FFFFFF" p-id="6969"></path></svg>