<svg t="1752555968584" class="icon" viewBox="0 0 1024 1024" version="1.1" xmlns="http://www.w3.org/2000/svg" p-id="6409" width="200" height="200">
    <path d="M85.333333 0h853.333334c46.933333 0 85.333333 38.4 85.333333 85.333333v853.333334c0 46.933333-38.4 85.333333-85.333333 85.333333H85.333333c-46.933333 0-85.333333-38.4-85.333333-85.333333V85.333333c0-46.933333 38.4-85.333333 85.333333-85.333333z" fill="#252937" p-id="6410" data-spm-anchor-id="a313x.search_index.0.i4.61f43a81jZqyAK" class="selected"></path><path d="M866.133333 473.6l-142.933333-247.466667c-12.8-21.333333-42.666667-38.4-68.266667-38.4H369.066667c-25.6 0-55.466667 17.066667-68.266667 38.4L157.866667 473.6c-12.8 21.333333-12.8 57.6 0 78.933333l142.933333 247.466667c12.8 21.333333 42.666667 38.4 68.266667 38.4h285.866666c25.6 0 55.466667-17.066667 68.266667-38.4l142.933333-247.466667c10.666667-23.466667 10.666667-57.6 0-78.933333z m-384-149.333333c0-17.066667 12.8-29.866667 29.866667-29.866667s29.866667 12.8 29.866667 29.866667v174.933333c0 17.066667-12.8 29.866667-29.866667 29.866667s-29.866667-12.8-29.866667-29.866667v-174.933333z m27.733334 375.466666c-110.933333 0-200.533333-89.6-200.533334-200.533333 0-64 29.866667-121.6 81.066667-160 10.666667-8.533333 27.733333-6.4 36.266667 6.4 8.533333 10.666667 6.4 27.733333-6.4 36.266667-66.133333 49.066667-78.933333 140.8-29.866667 206.933333s140.8 78.933333 206.933333 29.866667c38.4-27.733333 59.733333-72.533333 59.733334-117.333334 0-46.933333-21.333333-91.733333-59.733334-119.466666-10.666667-8.533333-14.933333-25.6-6.4-36.266667 8.533333-10.666667 25.6-14.933333 36.266667-6.4 51.2 38.4 81.066667 98.133333 81.066667 160 2.133333 110.933333-87.466667 200.533333-198.4 200.533333z" fill="#6DB33F" p-id="6411"></path>
</svg>
