<svg t="1748392735697" class="icon" viewBox="0 0 1024 1024" version="1.1" xmlns="http://www.w3.org/2000/svg" p-id="10973" width="256" height="256"><path d="M904 848H120c-30.93 0-56-25.07-56-56V232c0-30.93 25.07-56 56-56h784c30.93 0 56 25.07 56 56v560c0 30.93-25.07 56-56 56z" fill="#8C9EFF" p-id="10974"></path><path d="M64 792c0 30.93 25.07 56 56 56h84V680H64v112z" fill="#E1F5FF" p-id="10975" data-spm-anchor-id="a313x.search_index.0.i24.583b3a81r1QqqT" class="selected"></path><path d="M120 176c-30.93 0-56 25.07-56 56v112h140V176h-84z" fill="#7aaeeb" p-id="10976" data-spm-anchor-id="a313x.search_index.0.i20.583b3a81r1QqqT" class="selected"></path><path d="M64 344h140v168H64z" fill="#E1F5FF" p-id="10977" data-spm-anchor-id="a313x.search_index.0.i25.583b3a81r1QqqT" class="selected"></path><path d="M64 512h140v168H64z" fill="#7aaeeb" p-id="10978" data-spm-anchor-id="a313x.search_index.0.i21.583b3a81r1QqqT" class="selected"></path><path d="M819.21 848h84c30.93 0 56-25.07 56-56V680h-140v168z" fill="#E1F5FF" p-id="10979" data-spm-anchor-id="a313x.search_index.0.i23.583b3a81r1QqqT" class="selected"></path><path d="M903.21 176h-84v168h140V232c0-30.93-25.07-56-56-56z" fill="#7aaeeb" p-id="10980" data-spm-anchor-id="a313x.search_index.0.i19.583b3a81r1QqqT" class="selected"></path><path d="M819.21 344h140v168h-140z" fill="#E1F5FF" p-id="10981" data-spm-anchor-id="a313x.search_index.0.i22.583b3a81r1QqqT" class="selected"></path><path d="M819.21 512h140v168h-140z" fill="#7aaeeb" p-id="10982" data-spm-anchor-id="a313x.search_index.0.i18.583b3a81r1QqqT" class="selected"></path><path d="M619.24 536.25l-158.49 91.5c-18.67 10.78-42-2.69-42-24.25v-183c0-21.55 23.33-35.03 42-24.25l158.49 91.5c18.67 10.78 18.67 37.72 0 48.5z" fill="#FFD600" p-id="10983"></path></svg>
