<?xml version="1.0" standalone="no"?><!DOCTYPE svg PUBLIC "-//W3C//DTD SVG 1.1//EN" "http://www.w3.org/Graphics/SVG/1.1/DTD/svg11.dtd"><svg t="1756827371920" class="icon" viewBox="0 0 1024 1024" version="1.1" xmlns="http://www.w3.org/2000/svg" p-id="18740" xmlns:xlink="http://www.w3.org/1999/xlink" width="32" height="32"><path d="M386.681905 294.521905c53.638095 0 97.52381 43.885714 97.523809 97.523809v341.333334c0 53.638095-43.885714 97.52381-97.523809 97.523809s-97.52381-43.885714-97.52381-97.523809v-341.333334c0-53.638095 43.885714-97.52381 97.52381-97.523809z" fill="#FFCD00" p-id="18741"></path><path d="M694.857143 405.699048h-170.666667c-6.826667 0-12.190476-5.36381-12.190476-12.190477s5.36381-12.190476 12.190476-12.190476h170.666667c6.826667 0 12.190476 5.36381 12.190476 12.190476s-5.36381 12.190476-12.190476 12.190477zM376.685714 437.150476c-2.925714 0-5.851429-0.975238-8.289524-3.169524l-45.348571-41.935238c-4.87619-4.632381-5.36381-12.190476-0.731429-17.310476s12.190476-5.12 17.310477-0.731428l37.059047 34.377142 59.733334-55.344762c4.87619-4.632381 12.678095-4.388571 17.310476 0.731429 4.632381 4.87619 4.388571 12.678095-0.731429 17.310476l-68.022857 62.902857c-2.438095 1.950476-5.36381 3.169524-8.289524 3.169524zM694.857143 576.365714h-170.666667c-6.826667 0-12.190476-5.36381-12.190476-12.190476s5.36381-12.190476 12.190476-12.190476h170.666667c6.826667 0 12.190476 5.36381 12.190476 12.190476s-5.36381 12.190476-12.190476 12.190476zM376.685714 605.379048c-2.925714 0-5.851429-0.975238-8.289524-3.169524l-45.348571-41.935238c-4.87619-4.632381-5.36381-12.190476-0.731429-17.310476s12.190476-5.12 17.310477-0.731429l37.059047 34.377143 59.733334-55.344762c4.87619-4.632381 12.678095-4.388571 17.310476 0.731428 4.632381 4.87619 4.388571 12.678095-0.731429 17.310477l-68.022857 62.902857c-2.438095 2.194286-5.36381 3.169524-8.289524 3.169524zM694.857143 747.032381h-170.666667c-6.826667 0-12.190476-5.36381-12.190476-12.190476s5.36381-12.190476 12.190476-12.190476h170.666667c6.826667 0 12.190476 5.36381 12.190476 12.190476s-5.36381 12.190476-12.190476 12.190476zM388.144762 795.794286a60.952381 60.952381 0 0 1 0-121.904762c33.645714 0 60.952381 27.306667 60.952381 60.952381s-27.550476 60.952381-60.952381 60.952381z m0-97.52381c-20.23619 0-36.571429 16.335238-36.571429 36.571429s16.335238 36.571429 36.571429 36.571428 36.571429-16.335238 36.571428-36.571428-16.579048-36.571429-36.571428-36.571429zM658.285714 247.710476c-6.826667 0-12.190476-5.36381-12.190476-12.190476v-146.285714c0-6.826667-5.36381-12.190476-12.190476-12.190476H390.095238c-6.826667 0-12.190476 5.36381-12.190476 12.190476v146.285714c0 6.826667-5.36381 12.190476-12.190476 12.190476s-12.190476-5.36381-12.190476-12.190476v-146.285714c0-20.23619 16.335238-36.571429 36.571428-36.571429h243.809524c20.23619 0 36.571429 16.335238 36.571428 36.571429v146.285714c0 6.826667-5.36381 12.190476-12.190476 12.190476z" p-id="18742"></path><path d="M585.874286 212.114286h-147.504762c-6.826667 0-12.190476-5.36381-12.190476-12.190476s5.36381-12.190476 12.190476-12.190477h147.504762c6.826667 0 12.190476 5.36381 12.190476 12.190477s-5.607619 12.190476-12.190476 12.190476z" p-id="18743"></path><path d="M777.99619 896.24381H246.00381c-20.23619 0-36.571429-16.335238-36.571429-36.571429V224.304762c0-20.23619 16.335238-36.571429 36.571429-36.571429H292.571429c6.826667 0 12.190476 5.36381 12.190476 12.190477s-5.36381 12.190476-12.190476 12.190476h-46.567619c-6.826667 0-12.190476 5.36381-12.190477 12.190476v635.367619c0 6.826667 5.36381 12.190476 12.190477 12.190476h531.99238c6.826667 0 12.190476-5.36381 12.190477-12.190476V224.304762c0-6.826667-5.36381-12.190476-12.190477-12.190476H731.428571c-6.826667 0-12.190476-5.36381-12.190476-12.190476s5.36381-12.190476 12.190476-12.190477h46.567619c20.23619 0 36.571429 16.335238 36.571429 36.571429v635.367619c0 20.23619-16.335238 36.571429-36.571429 36.571429z" p-id="18744"></path><path d="M828.952381 971.337143H195.047619a60.952381 60.952381 0 0 1-60.952381-60.952381v-731.428572A60.952381 60.952381 0 0 1 195.047619 118.00381h97.52381c6.826667 0 12.190476 5.36381 12.190476 12.190476s-5.36381 12.190476-12.190476 12.190476H195.047619c-20.23619 0-36.571429 16.335238-36.571429 36.571428v731.428572c0 20.23619 16.335238 36.571429 36.571429 36.571428h633.904762c20.23619 0 36.571429-16.335238 36.571429-36.571428v-731.428572c0-20.23619-16.335238-36.571429-36.571429-36.571428h-97.52381c-6.826667 0-12.190476-5.36381-12.190476-12.190476s5.36381-12.190476 12.190476-12.190476h97.52381a60.952381 60.952381 0 0 1 60.952381 60.95238v731.428572c0 33.401905-27.306667 60.952381-60.952381 60.952381z" p-id="18745"></path></svg>