<svg t="1760344486871" class="icon" viewBox="0 0 1024 1024" version="1.1" xmlns="http://www.w3.org/2000/svg" p-id="6312" width="16" height="16"><path d="M891 874.9H130.5c-9.8 0-18 8.2-18 18s8.2 18 18 18H891c9.8 0 18-8.2 18-18 1.6-9.8-6.6-18-18-18z" fill="#F25757" p-id="6313"></path><path d="M851.7 389.2H702.9c-16.4 0-19.6 14.7-19.6 24.5l-1.6 343.4c0 9.8 0 31.1 18 31.1h150.5c32.7 0 60.5-27.8 60.5-60.5v-278c-0.1-32.7-26.3-60.5-59-60.5zM837 619.8c-13.1 8.2-26.2 13.1-42.5 13.1-14.7 0-27.8-4.9-39.2-11.4-13.1-9.8-19.6-21.3-19.6-36 0-9.8 6.5-16.4 16.4-16.4 6.5 0 9.8 4.9 13.1 14.7 3.3 13.1 13.1 19.6 29.4 19.6 8.2 0 16.4-3.3 22.9-6.5 6.5-3.3 9.8-8.2 11.4-16.4 0-8.2-3.3-14.7-9.8-19.6-3.3-3.3-11.4-6.5-32.7-6.5-16.4 0-18-9.8-18-14.7 0-4.9 3.3-13.1 18-14.7 13.1-1.6 22.9-3.3 27.8-4.9 11.4-4.9 13.1-11.4 13.1-16.4 0-3.3-1.6-9.8-9.8-13.1-4.9-1.6-11.4-3.3-19.6-3.3-13.1 0-21.3 4.9-24.5 16.4-3.3 8.2-8.2 13.1-13.1 13.1-9.8 0-16.4-6.5-16.4-16.4 0-13.1 6.5-24.5 18-32.7 9.8-6.5 21.3-9.8 34.3-9.8 16.3 0 29.4 3.3 40.9 9.8 13.1 9.8 19.6 21.3 19.6 37.6 0 14.7-8.2 26.2-21.3 34.3 14.7 8.2 22.9 22.9 22.9 40.9 0 16.4-6.6 29.5-21.3 39.3zM645.7 173.4c0-32.7-22.9-60.5-57.2-60.5H434.7c-34.3 0-57.2 27.8-57.2 60.5l-1.6 554.4c1.6 34.3 27.8 60.5 60.5 60.5h150.5c32.7 0 60.5-27.8 60.5-60.5l-1.7-554.4z m-99.8 183.1c0 9.8-6.5 16.4-18 16.4-9.8 0-16.4-6.5-16.4-16.4V243.7c-21.3 8.2-34.3 3.3-34.3-9.8 0-3.3 1.6-9.8 14.7-13.1 1.6-1.6 3.3-1.6 4.9-1.6 3.3-1.6 8.2-4.9 14.7-9.8 9.8-9.8 13.1-9.8 16.4-9.8 11.4 0 18 4.9 18 14.7v142.2zM341.5 758.8l-3.3-457.9c0-14.7 0-31.1-18-31.1H171.4c-32.7 0-58.9 26.2-58.9 58.9v400.7c0 32.7 26.2 60.5 60.5 60.5h150.5c22.9 0 18-21.3 18-31.1z m-73.6-256.7c9.8 0 16.4 4.9 16.4 14.7 0 9.8-4.9 14.7-16.4 14.7h-85c-18 0-19.6-11.4-19.6-16.4 0-6.5 4.9-14.7 14.7-26.2 6.5-8.2 16.4-18 27.8-27.8 9.8-9.8 19.6-18 29.4-24.5 11.4-9.8 18-19.6 18-29.4 0-6.5-3.3-11.4-8.2-14.7-4.9-3.3-11.4-4.9-19.6-4.9-8.2 0-14.7 1.6-19.6 6.5-6.5 4.9-9.8 9.8-11.4 18-1.6 11.4-6.5 16.4-13.1 16.4-9.8 0-16.4-6.5-16.4-16.4 0-14.7 6.5-26.2 18-37.6 11.4-11.4 26.2-16.3 42.5-16.3 16.4 0 29.4 3.3 40.9 11.4 11.4 9.8 18 21.3 18 37.6 0 16.4-8.2 32.7-27.8 49.1-14.7 13.1-24.5 22.9-29.4 26.2-6.5 6.5-13.1 13.1-18 19.6h58.8z" fill="#F25757" p-id="6314"></path></svg>
