<?xml version="1.0" standalone="no"?><!DOCTYPE svg PUBLIC "-//W3C//DTD SVG 1.1//EN" "http://www.w3.org/Graphics/SVG/1.1/DTD/svg11.dtd"><svg t="1752219071188" class="icon" viewBox="0 0 1024 1024" version="1.1" xmlns="http://www.w3.org/2000/svg" p-id="1633" xmlns:xlink="http://www.w3.org/1999/xlink" width="200" height="200"><path d="M140.5 736.4c0-131.2 106.4-237.6 237.6-237.6s237.6 106.4 237.6 237.6" fill="#D34040" p-id="1634"></path><path d="M627.9 736.4h-24.5c0-124.2-101.1-225.3-225.3-225.3S152.8 612.2 152.8 736.4h-24.5c0-137.7 112.1-249.8 249.8-249.8 137.8 0 249.8 112.1 249.8 249.8z" fill="#FFFFFF" p-id="1635"></path><path d="M378.1 406.2m-137.8 0a137.8 137.8 0 1 0 275.6 0 137.8 137.8 0 1 0-275.6 0Z" fill="#D34040" p-id="1636"></path><path d="M378.1 556.3c-82.7 0-150-67.3-150-150s67.3-150 150-150 150 67.3 150 150-67.3 150-150 150z m0-275.6c-69.2 0-125.6 56.3-125.6 125.5s56.3 125.5 125.6 125.5c69.2 0 125.5-56.3 125.5-125.5s-56.3-125.5-125.5-125.5z" fill="#FFFFFF" p-id="1637"></path><path d="M262.1 792.6C262.1 629.9 394 498 556.7 498s294.6 131.9 294.6 294.6" fill="#D34040" p-id="1638"></path><path d="M866.5 792.6h-30.4c0-154.1-125.3-279.4-279.4-279.4S277.3 638.5 277.3 792.6h-30.4c0-170.8 139-309.7 309.8-309.7s309.8 138.9 309.8 309.7z" fill="#FFFFFF" p-id="1639"></path><path d="M556.7 383.1m-170.9 0a170.9 170.9 0 1 0 341.8 0 170.9 170.9 0 1 0-341.8 0Z" fill="#D34040" p-id="1640"></path><path d="M556.7 569.2c-102.6 0-186-83.5-186-186 0-102.6 83.5-186 186-186 102.6 0 186 83.5 186 186s-83.4 186-186 186z m0-341.7c-85.8 0-155.7 69.8-155.7 155.7 0 85.8 69.8 155.7 155.7 155.7S712.4 469 712.4 383.1c0-85.8-69.9-155.6-155.7-155.6z" fill="#FFFFFF" p-id="1641"></path></svg>